<svg height="64" viewBox="0 0 64 64" width="64" xmlns="http://www.w3.org/2000/svg"><g fill="none" fill-rule="evenodd" transform="translate(5 5)"><path d="m24 49c0 1.657-1.343 3-3 3h-18c-1.657 0-3-1.343-3-3v-1h24z" fill="#c0ccdb"/><path d="m2 48h20v-12h-20z" fill="#e9effa"/><path d="m52 49c0 1.657-1.343 3-3 3h-18c-1.657 0-3-1.343-3-3v-1h24z" fill="#c0ccdb"/><path d="m30 48h20v-12h-20z" fill="#e9effa"/><path d="m29.4346 2.9414c-.877-1.744-2.683-2.941-4.768-2.941-2.946 0-5.334 2.387-5.334 5.333-2.945 0-5.333 2.387-5.333 5.334 0 2.945 2.388 5.333 5.333 5.333h12c3.683 0 6.667-2.985 6.667-6.667s-2.984-6.666-6.667-6.666c-.659 0-1.296.095-1.899.274z" fill="#87d6cd"/><g stroke="#414547" stroke-linecap="round" stroke-linejoin="round" stroke-width="2"><path d="m2 48v-12h20v12"/><path d="m30 48v-12h20v12"/><path d="m24 49c0 1.657-1.343 3-3 3h-18c-1.657 0-3-1.343-3-3v-1h24z"/><path d="m52 49c0 1.657-1.343 3-3 3h-18c-1.657 0-3-1.343-3-3v-1h24z"/><path d="m12 32v-6h28v6"/><path d="m26 20v6"/><path d="m29.4346 2.9414c-.877-1.744-2.683-2.941-4.768-2.941-2.946 0-5.334 2.387-5.334 5.333-2.945 0-5.333 2.387-5.333 5.334 0 2.945 2.388 5.333 5.333 5.333h12c3.683 0 6.667-2.985 6.667-6.667s-2.984-6.666-6.667-6.666c-.659 0-1.296.095-1.899.274z"/></g></g></svg>