<svg height="48pt" viewBox="0 0 48 48" width="48pt" xmlns="http://www.w3.org/2000/svg" xmlns:xlink="http://www.w3.org/1999/xlink"><linearGradient id="a" gradientUnits="userSpaceOnUse" x1="2.5" x2="45.5" y1="25" y2="25"><stop offset="0" stop-color="#3494e6"/><stop offset=".98695652174" stop-color="#ec6ead"/></linearGradient><path d="m33.254 13.024h-2.177v3.811h-3.267v-3.811h-2.177v3.811h-3.266v-3.811h-2.177v3.811h-3.267v-3.811h-2.177v3.811h-3.266v-3.811h-1.089v17.42h5.444v6.532h16.33v-6.532h5.444v-17.42h-1.089v3.811h-3.266zm-27.754 12.976c0 .828-.672 1.5-1.5 1.5-.828 0-1.5-.672-1.5-1.5v-19.5c0-1.656 1.344-3 3-3h37c1.656 0 3 1.344 3 3v9.5c0 .828-.672 1.5-1.5 1.5-.828 0-1.5-.672-1.5-1.5v-8.5c0-.552-.448-1-1-1h-35c-.552 0-1 .448-1 1zm3.802-16.242h29.396c1.201 0 2.177.976 2.177 2.177v19.597c0 1.202-.976 2.178-2.177 2.178h-3.267v4.355c0 1.201-.975 2.177-2.177 2.177h-18.508c-1.202 0-2.177-.976-2.177-2.177v-4.355h-3.267c-1.201 0-2.177-.976-2.177-2.178v-19.597c0-1.201.976-2.177 2.177-2.177zm33.198 15.242c0-.828.672-1.5 1.5-1.5.828 0 1.5.672 1.5 1.5v18.5c0 1.656-1.344 3-3 3h-37c-1.656 0-3-1.344-3-3v-8.5c0-.828.672-1.5 1.5-1.5.828 0 1.5.672 1.5 1.5v7.5c0 .552.448 1 1 1h35c.552 0 1-.448 1-1z" fill="url(#a)" fill-rule="evenodd"/></svg>