<svg height="297mm" viewBox="0 0 744.09448819 1052.3622047" width="210mm" xmlns="http://www.w3.org/2000/svg" xmlns:xlink="http://www.w3.org/1999/xlink"><linearGradient id="a" gradientUnits="userSpaceOnUse" x1="293.049826" x2="506.9387155" y1="644.3727400818" y2="430.4838505818"><stop offset="0" stop-color="#4e505d"/><stop offset="1" stop-color="#7a8597"/></linearGradient><path d="m190 322.36221h400v400h-400z" fill="none"/><path d="m390.27205 372.14721a175 106.94444 0 0 0 -175 106.94445 175 106.94444 0 0 0 175 106.94444 175 106.94444 0 0 0 175-106.94444 175 106.94444 0 0 0 -175-106.94445zm-168.36155 163.60676c-2.6712-.0778-4.83661 2.14745-4.68642 4.81554l3.88888 67.61502c.0416.72337.2555 1.42637.62285 2.05077 0 0 9.91694 16.62328 35.73675 32.58465 25.81985 15.96136 67.78629 31.68837 132.37412 31.68837 64.58791 0 106.56194-15.72701 132.38175-31.68837 25.81981-15.96137 35.73675-32.58465 35.73675-32.58465.34261-.57976.55288-1.22827.61526-1.89887l5.83333-64.70594c.43003-4.72792-5.74929-6.88504-8.35504-2.91667 0 0-9.8268 15.08006-35.67601 30.71616-25.84921 15.63609-67.45099 31.4529-130.53604 31.4529-63.0502 0-104.10676-16.5177-129.44983-32.84287-25.34311-16.32516-34.71141-32.08333-34.71141-32.08333-.80169-1.32856-2.22386-2.15841-3.77494-2.20271z" fill="url(#a)"/><g fill="#fff" fill-rule="evenodd" stroke-linejoin="round" stroke-width="30" transform="matrix(3.8888889 0 0 2.5152588 -1282.1595 -734.6779)"><path d="m425 508.95249h10v-15h5l-10-10-10 10h5z"/><path d="m435 450.71987h-10v15h-5l10 10 10-10h-5z"/><path d="m437.97401 474.6594v10h15v5l10-10-10-10v5z"/><path d="m421.67244 484.83618v-10h-15v-5l-10 10 10 10v-5z"/></g></svg>